{
    "data": [
        {
            "type": "torrent",
            "id": "133378",
            "attributes": {
                "poster": "https://image.tmdb.org/t/p/w92/8ymAiDW9ct2GSywWkqATEiKE8OB.jpg",
                "name": "City of the Living Dead AKA Gates of Hell 1980 REPACK2 1080p 35mm BluRay REMUX AVC DTS-HD MA 1.0-GSeye",
                "release_year": null,
                "category": "Movie",
                "type": "Remux",
                "resolution": "1080p",
                "media_info": "General\r\nUnique ID                                : 326436241780266059543995424933105546507 (0xF595555300ECB97506C646C8A84EB50B)\r\nComplete name                            : City.of.the.Living.Dead.1980.REPACK2.1080p.35mm.BluRay.REMUX.AVC.DTS-HD.MA.1.0-GSeye.mkv\r\nFormat                                   : Matroska\r\nFormat version                           : Version 4\r\nFile size                                : 19.8 GiB\r\nDuration                                 : 1 h 32 min\r\nOverall bit rate mode                    : Variable\r\nOverall bit rate                         : 30.6 Mb/s\r\nMovie name                               : City of the Living Dead (1980)\r\nEncoded date                             : UTC 2022-05-13 20:38:27\r\nWriting application                      : mkvmerge v67.0.0 ('Under Stars') 64-bit\r\nWriting library                          : libebml v1.4.2 + libmatroska v1.6.4\r\nIMDB                                     : tt0081318\r\nTMDB                                     : movie/24920\r\n\r\nVideo\r\nID                                       : 1\r\nFormat                                   : AVC\r\nFormat/Info                              : Advanced Video Codec\r\nFormat profile                           : High@L4.1\r\nFormat settings                          : CABAC / 4 Ref Frames\r\nFormat settings, CABAC                   : Yes\r\nFormat settings, Reference frames        : 4 frames\r\nFormat settings, GOP                     : M=3, N=12\r\nCodec ID                                 : V_MPEG4/ISO/AVC\r\nDuration                                 : 1 h 32 min\r\nBit rate mode                            : Variable\r\nBit rate                                 : 29.1 Mb/s\r\nMaximum bit rate                         : 34.6 Mb/s\r\nWidth                                    : 1 920 pixels\r\nHeight                                   : 1 080 pixels\r\nDisplay aspect ratio                     : 16:9\r\nFrame rate mode                          : Constant\r\nFrame rate                               : 23.976 (24000/1001) FPS\r\nStandard                                 : NTSC\r\nColor space                              : YUV\r\nChroma subsampling                       : 4:2:0\r\nBit depth                                : 8 bits\r\nScan type                                : Progressive\r\nBits/(Pixel*Frame)                       : 0.585\r\nStream size                              : 18.8 GiB (95%)\r\nTitle                                    : MPEG-4 AVC Video / 29064 kbps / 1080p / 23.976 fps / 16:9 / High Profile 4.1\r\nLanguage                                 : Italian\r\nDefault                                  : Yes\r\nForced                                   : No\r\nColor range                              : Limited\r\nColor primaries                          : BT.709\r\nTransfer characteristics                 : BT.709\r\nMatrix coefficients                      : BT.709\r\n\r\nAudio #1\r\nID                                       : 2\r\nFormat                                   : DTS XLL\r\nFormat/Info                              : Digital Theater Systems\r\nCommercial name                          : DTS-HD Master Audio\r\nCodec ID                                 : A_DTS\r\nDuration                                 : 1 h 32 min\r\nBit rate mode                            : Variable\r\nBit rate                                 : 770 kb/s\r\nChannel(s)                               : 1 channel\r\nChannel layout                           : C\r\nSampling rate                            : 48.0 kHz\r\nFrame rate                               : 93.750 FPS (512 SPF)\r\nBit depth                                : 24 bits\r\nCompression mode                         : Lossless\r\nStream size                              : 511 MiB (3%)\r\nTitle                                    : DTS-HD Master Audio / 1.0 / 48 kHz / 770 kbps / 24-bit\r\nLanguage                                 : Italian\r\nDefault                                  : Yes\r\nForced                                   : No\r\n\r\nAudio #2\r\nID                                       : 3\r\nFormat                                   : DTS XLL\r\nFormat/Info                              : Digital Theater Systems\r\nCommercial name                          : DTS-HD Master Audio\r\nCodec ID                                 : A_DTS\r\nDuration                                 : 1 h 32 min\r\nBit rate mode                            : Variable\r\nBit rate                                 : 734 kb/s\r\nChannel(s)                               : 1 channel\r\nChannel layout                           : C\r\nSampling rate                            : 48.0 kHz\r\nFrame rate                               : 93.750 FPS (512 SPF)\r\nBit depth                                : 24 bits\r\nCompression mode                         : Lossless\r\nStream size                              : 487 MiB (2%)\r\nTitle                                    : Dub / DTS-HD Master Audio / 1.0 / 48 kHz / 734 kbps / 24-bit\r\nLanguage                                 : English\r\nDefault                                  : No\r\nForced                                   : No\r\n\r\nText #1\r\nID                                       : 4\r\nFormat                                   : UTF-8\r\nCodec ID                                 : S_TEXT/UTF8\r\nCodec ID/Info                            : UTF-8 Plain Text\r\nDuration                                 : 1 h 28 min\r\nBit rate                                 : 27 b/s\r\nCount of elements                        : 514\r\nStream size                              : 18.2 KiB (0%)\r\nLanguage                                 : English\r\nDefault                                  : Yes\r\nForced                                   : No\r\n\r\nText #2\r\nID                                       : 5\r\nFormat                                   : UTF-8\r\nCodec ID                                 : S_TEXT/UTF8\r\nCodec ID/Info                            : UTF-8 Plain Text\r\nDuration                                 : 1 h 31 min\r\nBit rate                                 : 40 b/s\r\nCount of elements                        : 881\r\nStream size                              : 27.1 KiB (0%)\r\nTitle                                    : SDH / Dub\r\nLanguage                                 : English\r\nDefault                                  : No\r\nForced                                   : No\r\n\r\nMenu\r\n00:00:00.000                             : en:Main Titles / Dunwich Horror\r\n00:05:12.854                             : en:The Psychic\r\n00:08:55.243                             : en:Bob and the Real Girl\r\n00:12:11.648                             : en:Strange Occurances\r\n00:17:21.123                             : en:Buried Alive\r\n00:24:42.731                             : en:The Gates of Hell\r\n00:29:31.186                             : en:Blood, Guts and Brains\r\n00:33:45.148                             : en:Scared to Death\r\n00:39:18.064                             : en:Disappearing Act\r\n00:42:42.769                             : en:The Face of Fear\r\n00:45:58.673                             : en:Sandra's Suprise\r\n00:53:51.311                             : en:The House That Dripped Blood\r\n00:56:27.217                             : en:Driller Killer\r\n00:59:01.788                             : en:Millions of Maggots\r\n01:05:12.238                             : en:To the Rescue\r\n01:08:13.006                             : en:Night Terrors\r\n01:12:40.398                             : en:The Dead Are Alive\r\n01:16:26.665                             : en:Crypt of Terror\r\n01:24:32.025                             : en:Hellfire\r\n01:31:32.570                             : en:End Credits",
                "bd_info": null,
                "description": "[spoiler=REPACK2 Notes:]Glitch in one scene on playback.\r\nI re-did this from scratch with a few additions. \r\nI have re-encoded to DTS-HD MA 1.0 with 255 kbps core for proper mono playback.\r\nFixed a couple of typos in the Named Chapters.[/spoiler]\r\n\r\n[b]Source #1:[/b] Dark Force Drive-in Volume 6 Blu-ray / Video, Audio (English) - (Thanks GSeye) \r\n[b]Source #2:[/b] Scorpion Releasing 4K Remastered Blu-ray / Audio (Italian), Subtitles - (Thanks to heavytrip)\r\n[b]Source #3:[/b] Blue Underground NTSC DVD / Named Chapters - (Thanks to cropsy@TiK)\r\n\r\n[b][u]Notes on this release:[/u][/b]\r\nThis movie has been released a number of times, and a couple of remux's already exist, one is taken from the 4k remaster by Scorpion/Ronin flix. For me personally, the 35mm print that was released on the Drive-in series 6 Blu-ray by Dark Force is my favourite way to watch the movie. It's got the Grindhouse/Drive-in feel to it, and I love the fact they got hold of a 35mm print and released it as is, and I understand people might think well why watch that when we have a new 4k scan with everything all cleaned up, and that's fine. Me personally, I prefer this, and like to have the option. \r\n\r\n[b][u]Audio:[/u][/b]\r\nI've used the Italian track, I felt it was quite a nice touch to watch the 35mm print in Italian. The 80s dubs are always something to admire :) I personally always watch the movie in English, but again, I like to have the choice. I decided against including the commentary tracks from other releases, as they have been included on other remux's, and I feel this would have taken away from the intention of this version. Named Chapters were synced, timed to I-Frames. \r\n\r\n[center][url=https://imgbox.com/vOtgpyjs][img]https://thumbs2.imgbox.com/36/10/vOtgpyjs_t.png[/img][/url] [url=https://imgbox.com/cf9RC0Nm][img]https://thumbs2.imgbox.com/6e/aa/cf9RC0Nm_t.png[/img][/url] [url=https://imgbox.com/glzuhQ8Q][img]https://thumbs2.imgbox.com/d9/0f/glzuhQ8Q_t.png[/img][/url] [url=https://imgbox.com/fqAR07Ej][img]https://thumbs2.imgbox.com/9c/57/fqAR07Ej_t.png[/img][/url] [url=https://imgbox.com/PV9NHVFU][img]https://thumbs2.imgbox.com/59/8f/PV9NHVFU_t.png[/img][/url] [url=https://imgbox.com/piKQCp7Z][img]https://thumbs2.imgbox.com/b7/c9/piKQCp7Z_t.png[/img][/url] [url=https://imgbox.com/1S7u6tZ5][img]https://thumbs2.imgbox.com/f0/07/1S7u6tZ5_t.png[/img][/url] [url=https://imgbox.com/djcqaEsN][img]https://thumbs2.imgbox.com/79/95/djcqaEsN_t.png[/img][/url] [url=https://imgbox.com/nqBAR9lU][img]https://thumbs2.imgbox.com/a5/b6/nqBAR9lU_t.png[/img][/url] [url=https://imgbox.com/GyY72vX6][img]https://thumbs2.imgbox.com/bd/1e/GyY72vX6_t.png[/img][/url] [url=https://imgbox.com/2Lcev3Hg][img]https://thumbs2.imgbox.com/7c/06/2Lcev3Hg_t.png[/img][/url] [url=https://imgbox.com/2SLbUYsN][img]https://thumbs2.imgbox.com/b0/d7/2SLbUYsN_t.png[/img][/url] [url=https://imgbox.com/ZjSxodGb][img]https://thumbs2.imgbox.com/ed/87/ZjSxodGb_t.png[/img][/url] [url=https://imgbox.com/lCzNwy6S][img]https://thumbs2.imgbox.com/f0/27/lCzNwy6S_t.png[/img][/url] [url=https://imgbox.com/mho8BGHA][img]https://thumbs2.imgbox.com/2b/10/mho8BGHA_t.png[/img][/url] [url=https://imgbox.com/j5Z5I53S][img]https://thumbs2.imgbox.com/ef/f2/j5Z5I53S_t.png[/img][/url] [url=https://imgbox.com/JdBDFHFy][img]https://thumbs2.imgbox.com/e8/f8/JdBDFHFy_t.png[/img][/url] [url=https://imgbox.com/uOM9pWYU][img]https://thumbs2.imgbox.com/8e/d7/uOM9pWYU_t.png[/img][/url] [url=https://imgbox.com/e2yzAROy][img]https://thumbs2.imgbox.com/b6/96/e2yzAROy_t.png[/img][/url] [url=https://imgbox.com/4YQUrnwv][img]https://thumbs2.imgbox.com/73/d8/4YQUrnwv_t.png[/img][/url] [url=https://imgbox.com/G7UXvxjN][img]https://thumbs2.imgbox.com/a1/81/G7UXvxjN_t.png[/img][/url][/center]",
                "info_hash": "a434ab082bba9b94fc697b28bb8dda43d4eed0cc",
                "size": 21270950015,
                "num_file": 1,
                "freeleech": "100%",
                "double_upload": 0,
                "internal": 0,
                "uploader": "Kreeper",
                "seeders": 23,
                "leechers": 0,
                "times_completed": 22,
                "tmdb_id": "24920",
                "imdb_id": "0081318",
                "tvdb_id": "0",
                "mal_id": "0",
                "igdb_id": "0",
                "category_id": 1,
                "type_id": 3,
                "resolution_id": 2,
                "created_at": "2022-05-14T16:40:05.000000Z",
                "download_link": "http://localhost:5000/torrent/download/133378.5b7ea911c9827216bacda80c69d7b9d0",
                "details_link": "http://localhost:5000/torrents/133378"
            }
        },
        {
            "type": "torrent",
            "id": "114706",
            "attributes": {
                "poster": "https://image.tmdb.org/t/p/w92/8ymAiDW9ct2GSywWkqATEiKE8OB.jpg",
                "name": "City of the Living Dead AKA The Gates of Hell AKA Paura nella Città dei Morti Viventi 1980 1080p BluRay AAC 2.0 x264",
                "release_year": "1980",
                "category": "Movie",
                "type": "Encode",
                "resolution": "1080p",
                "media_info": "General\r\n    Unique ID : 251087741375575309946193099233326082936 (0xBCE5BD6F39149397CCB99986C6752B78)\r\n    Complete name : City.of.the.Living.Dead.1980.Scorpion.Releasing.4K.Restoration.1080p.BluRay.x264.mkv\r\n    Format : Matroska\r\n    Format version : Version 4\r\n    File size : 11.5 GiB\r\n    Duration : 1 h 32 min\r\n    Overall bit rate : 17.7 Mb/s\r\n    Encoded date : UTC 2020-06-24 01:54:59\r\n    Writing application : mkvmerge v46.0.0 ('No Deeper Escape') 64-bit\r\n    Writing library : libebml v1.3.10 + libmatroska v1.5.2\r\n\r\n    Video\r\n    ID : 1\r\n    Format : AVC\r\n    Format/Info : Advanced Video Codec\r\n    Format profile : High@L4.1\r\n    Format settings : CABAC / 4 Ref Frames\r\n    Format settings, CABAC : Yes\r\n    Format settings, Reference frames : 4 frames\r\n    Codec ID : V_MPEG4/ISO/AVC\r\n    Duration : 1 h 32 min\r\n    Bit rate : 16.6 Mb/s\r\n    Width : 1 920 pixels\r\n    Height : 1 038 pixels\r\n    Display aspect ratio : 1.85:1\r\n    Frame rate mode : Constant\r\n    Frame rate : 24.000 FPS\r\n    Color space : YUV\r\n    Chroma subsampling : 4:2:0\r\n    Bit depth : 8 bits\r\n    Scan type : Progressive\r\n    Bits/(Pixel*Frame) : 0.346\r\n    Stream size : 10.7 GiB (94%)\r\n    Writing library : x264 core 157 r2935 545de2f\r\n    Encoding settings : cabac=1 / ref=4 / deblock=1:-3:-3 / analyse=0x3:0x133 / me=umh / subme=10 / psy=1 / psy_rd=1.00:0.00 / mixed_ref=1 / me_range=32 / chroma_me=1 / trellis=2 / 8x8dct=1 / cqm=0 / deadzone=21,11 / fast_pskip=0 / chroma_qp_offset=-2 / threads=24 / lookahead_threads=6 / sliced_threads=0 / nr=0 / decimate=0 / interlaced=0 / bluray_compat=0 / constrained_intra=0 / bframes=16 / b_pyramid=2 / b_adapt=2 / b_bias=0 / direct=3 / weightb=1 / open_gop=0 / weightp=2 / keyint=240 / keyint_min=24 / scenecut=40 / intra_refresh=0 / rc_lookahead=60 / rc=crf / mbtree=0 / crf=20.5 / qcomp=0.60 / qpmin=0 / qpmax=69 / qpstep=4 / vbv_maxrate=62500 / vbv_bufsize=78125 / crf_max=0.0 / nal_hrd=none / filler=0 / ip_ratio=1.40 / pb_ratio=1.30 / aq=2:1.00\r\n    Default : Yes\r\n    Forced : No\r\n    Color range : Limited\r\n    Color primaries : BT.709\r\n    Transfer characteristics : BT.709\r\n    Matrix coefficients : BT.709\r\n\r\n    Audio #1\r\n    ID : 2\r\n    Format : AC-3\r\n    Format/Info : Audio Coding 3\r\n    Commercial name : Dolby Digital\r\n    Codec ID : A_AC3\r\n    Duration : 1 h 32 min\r\n    Bit rate mode : Constant\r\n    Bit rate : 640 kb/s\r\n    Channel(s) : 6 channels\r\n    Channel layout : L R C LFE Ls Rs\r\n    Sampling rate : 48.0 kHz\r\n    Frame rate : 31.250 FPS (1536 SPF)\r\n    Compression mode : Lossy\r\n    Stream size : 424 MiB (4%)\r\n    Title : English dub\r\n    Language : English\r\n    Service kind : Complete Main\r\n    Default : Yes\r\n    Forced : No\r\n\r\n    Audio #2\r\n    ID : 3\r\n    Format : AAC LC\r\n    Format/Info : Advanced Audio Codec Low Complexity\r\n    Codec ID : A_AAC-2\r\n    Duration : 1 h 32 min\r\n    Bit rate : 127 kb/s\r\n    Channel(s) : 2 channels\r\n    Channel layout : L R\r\n    Sampling rate : 48.0 kHz\r\n    Frame rate : 46.875 FPS (1024 SPF)\r\n    Compression mode : Lossy\r\n    Stream size : 84.0 MiB (1%)\r\n    Title : Italian\r\n    Language : Italian\r\n    Default : No\r\n    Forced : No\r\n\r\n    Audio #3\r\n    ID : 4\r\n    Format : AAC LC\r\n    Format/Info : Advanced Audio Codec Low Complexity\r\n    Codec ID : A_AAC-2\r\n    Duration : 1 h 32 min\r\n    Bit rate : 83.5 kb/s\r\n    Channel(s) : 2 channels\r\n    Channel layout : L R\r\n    Sampling rate : 48.0 kHz\r\n    Frame rate : 46.875 FPS (1024 SPF)\r\n    Compression mode : Lossy\r\n    Stream size : 55.4 MiB (0%)\r\n    Title : Commentary by film historians Troy Howarth and Nathaniel Thompson\r\n    Language : English\r\n    Default : No\r\n    Forced : No\r\n\r\n    Audio #4\r\n    ID : 5\r\n    Format : AAC LC\r\n    Format/Info : Advanced Audio Codec Low Complexity\r\n    Codec ID : A_AAC-2\r\n    Duration : 1 h 32 min\r\n    Bit rate : 75.6 kb/s\r\n    Channel(s) : 2 channels\r\n    Channel layout : L R\r\n    Sampling rate : 48.0 kHz\r\n    Frame rate : 46.875 FPS (1024 SPF)\r\n    Compression mode : Lossy\r\n    Stream size : 50.1 MiB (0%)\r\n    Title : Commentary by DP Sergio Salvati, camera operator Roberto Forges Davanzati and film professor Paolo Albiero\r\n    Language : Italian\r\n    Default : No\r\n    Forced : No\r\n\r\n    Audio #5\r\n    ID : 6\r\n    Format : AAC LC\r\n    Format/Info : Advanced Audio Codec Low Complexity\r\n    Codec ID : A_AAC-2\r\n    Duration : 1 h 32 min\r\n    Bit rate : 115 kb/s\r\n    Channel(s) : 2 channels\r\n    Channel layout : L R\r\n    Sampling rate : 48.0 kHz\r\n    Frame rate : 46.875 FPS (1024 SPF)\r\n    Compression mode : Lossy\r\n    Stream size : 76.2 MiB (1%)\r\n    Title : Commentary by actor Giovanni Lombardo Radice and writer Calum Waddell\r\n    Language : English\r\n    Default : No\r\n    Forced : No\r\n\r\n    Audio #6\r\n    ID : 7\r\n    Format : AAC LC\r\n    Format/Info : Advanced Audio Codec Low Complexity\r\n    Codec ID : A_AAC-2\r\n    Duration : 1 h 32 min\r\n    Bit rate : 82.6 kb/s\r\n    Channel(s) : 2 channels\r\n    Channel layout : L R\r\n    Sampling rate : 48.0 kHz\r\n    Frame rate : 46.875 FPS (1024 SPF)\r\n    Compression mode : Lossy\r\n    Stream size : 54.8 MiB (0%)\r\n    Title : Commentary by actor Catriona MacColl and journalist Jay Slater\r\n    Language : English\r\n    Default : No\r\n    Forced : No\r\n\r\n    Text #1\r\n    ID : 8\r\n    Format : UTF-8\r\n    Codec ID : S_TEXT/UTF8\r\n    Codec ID/Info : UTF-8 Plain Text\r\n    Duration : 1 h 29 min\r\n    Bit rate : 34 b/s\r\n    Count of elements : 623\r\n    Stream size : 22.4 KiB (0%)\r\n    Title : English for English audio track\r\n    Language : English\r\n    Default : Yes\r\n    Forced : No\r\n\r\n    Text #2\r\n    ID : 9\r\n    Format : UTF-8\r\n    Codec ID : S_TEXT/UTF8\r\n    Codec ID/Info : UTF-8 Plain Text\r\n    Duration : 1 h 31 min\r\n    Bit rate : 40 b/s\r\n    Count of elements : 873\r\n    Stream size : 27.1 KiB (0%)\r\n    Title : English SDH for English audio track\r\n    Language : English\r\n    Default : No\r\n    Forced : No\r\n\r\n    Text #3\r\n    ID : 10\r\n    Format : UTF-8\r\n    Codec ID : S_TEXT/UTF8\r\n    Codec ID/Info : UTF-8 Plain Text\r\n    Duration : 1 h 28 min\r\n    Bit rate : 27 b/s\r\n    Count of elements : 511\r\n    Stream size : 18.1 KiB (0%)\r\n    Title : English for Italian audio track\r\n    Language : English\r\n    Default : No\r\n    Forced : No\r\n\r\n    Text #4\r\n    ID : 11\r\n    Format : UTF-8\r\n    Codec ID : S_TEXT/UTF8\r\n    Codec ID/Info : UTF-8 Plain Text\r\n    Duration : 1 h 32 min\r\n    Bit rate : 85 b/s\r\n    Count of elements : 1404\r\n    Stream size : 57.8 KiB (0%)\r\n    Title : English for Italian commentary\r\n    Language : English\r\n    Default : No\r\n    Forced : No\r\n\r\n    Menu\r\n    00:00:00.000 : :Chapter 1\r\n    00:08:49.458 : :Chapter 2\r\n    00:17:15.167 : :Chapter 3\r\n    00:26:26.458 : :Chapter 4\r\n    00:35:11.000 : :Chapter 5\r\n    00:42:37.708 : :Chapter 6\r\n    00:51:17.458 : :Chapter 7\r\n    00:58:57.250 : :Chapter 8\r\n    01:08:13.792 : :Chapter 9\r\n    01:18:26.417 : :Chapter 10",
                "bd_info": null,
                "description": "[quote]Encoded from Paura nella Città dei Morti Viventi AKA City of the Living Dead AKA The Gates of Hell [1980] - BD50 / m2ts / Blu-ray / 1080p / 4K Restoration / Scorpion Releasing / Dual Audio\r\n\r\nFeatures all 2 commentary tracks + the two from the Arrow BD.\r\n\r\nPlus 4 English subs, OCRed by johnnydeep:\r\n- English for English audio track\r\n- English SDH for English audio track\r\n- English for Italian audio track\r\n- English for Italian Commentary[/quote][url=https://imgbox.com/7AkVAGhN][img]https://thumbs2.imgbox.com/cf/0e/7AkVAGhN_t.png[/img][/url] [url=https://imgbox.com/d2ScSQoW][img]https://thumbs2.imgbox.com/30/b3/d2ScSQoW_t.png[/img][/url] [url=https://imgbox.com/0Rw8Ao81][img]https://thumbs2.imgbox.com/2b/39/0Rw8Ao81_t.png[/img][/url] [url=https://imgbox.com/Om0wVWBc][img]https://thumbs2.imgbox.com/f9/68/Om0wVWBc_t.png[/img][/url] [url=https://imgbox.com/ICwGUSRz][img]https://thumbs2.imgbox.com/28/93/ICwGUSRz_t.png[/img][/url]",
                "info_hash": "706f3c9125bbb56614810fcc7b01977e13b712b2",
                "size": 12300907232,
                "num_file": 1,
                "freeleech": "0%",
                "double_upload": 0,
                "internal": 0,
                "uploader": "4KHD",
                "seeders": 3,
                "leechers": 0,
                "times_completed": 8,
                "tmdb_id": "24920",
                "imdb_id": "0081318",
                "tvdb_id": "0",
                "mal_id": "0",
                "igdb_id": "0",
                "category_id": 1,
                "type_id": 12,
                "resolution_id": 2,
                "created_at": "2021-11-30T04:46:01.000000Z",
                "download_link": "http://localhost:5000/torrent/download/114706.5b7ea911c9827216bacda80c69d7b9d0",
                "details_link": "http://localhost:5000/torrents/114706"
            }
        },
        {
            "type": "torrent",
            "id": "100918",
            "attributes": {
                "poster": "https://image.tmdb.org/t/p/w92/8ymAiDW9ct2GSywWkqATEiKE8OB.jpg",
                "name": "The Gates of Hell AKA City of the Living Dead 1980 1080p Blu-ray AVC DTS-HD MA 5.1",
                "release_year": "1980",
                "category": "Movie",
                "type": "Full Disc",
                "resolution": "1080p",
                "region": "VIN",
                "media_info": null,
                "bd_info": "Disc Title: THE GATES OF HELL\r\nDisc Size: 46,497,535,096 bytes\r\nProtection: AACS\r\nBD-Java: No\r\nPlaylist: 00001.MPLS\r\nSize: 29,566,961,664 bytes\r\nLength: 1:32:41.250\r\nTotal Bitrate: 42.53 Mbps\r\nVideo: MPEG-4 AVC Video / 29996 kbps / 1080p / 24 fps / 16:9 / High Profile 4.1\r\nAudio: English / DTS-HD Master Audio / 5.1 / 48 kHz / 3493 kbps / 24-bit (DTS Core: 5.1 / 48 kHz / 1509 kbps / 24-bit)\r\nAudio: English / DTS-HD Master Audio / 2.0 / 48 kHz / 2002 kbps / 24-bit (DTS Core: 2.0 / 48 kHz / 1509 kbps / 24-bit)\r\nAudio: English / DTS-HD Master Audio / 2.0 / 48 kHz / 1826 kbps / 24-bit (DTS Core: 2.0 / 48 kHz / 1509 kbps / 24-bit)\r\nAudio: Italian / DTS-HD Master Audio / 2.0 / 48 kHz / 1816 kbps / 24-bit (DTS Core: 2.0 / 48 kHz / 1509 kbps / 24-bit)\r\n* Audio: English / Dolby Digital Audio / 2.0 / 48 kHz / 192 kbps / DN -4dB\r\n* Audio: Italian / Dolby Digital Audio / 2.0 / 48 kHz / 192 kbps / DN -4dB\r\nSubtitle: English / 47.630 kbps\r\nSubtitle: English / 30.791 kbps\r\n* Subtitle: English / 98.369 kbps",
                "description": "[center][size=18][url=https://www.blu-ray.com/movies/The-Gates-of-Hell-Blu-ray/177340/]Scorpion Releasing[/url]﻿[/size][/center]\r\n\r\n[list][*][b]NEW 4K RESTORATION OF THE FILM[/b], with exclusive color grading[/list]\r\n[list][*][b]Commentary #1[/b] features film historians Troy Howarth and Nathaniel Thompson. [/list][list][*][b]Commentary #2[/b] features director of photography Sergio Salvati and camera operator Roberto Forges Davanzati. [/list][list][*][b]\"Through Your Eyes\"[/b] (37:01, HD) is a 2018 chat with actress Catriona MacColl, who recounts her early casting interests in Rome, catching the eye of a producer through a photo submission. Traveling to Italy to meet with Fulci, MacColl recalls the director's shy nature, while her own hesitation to star in violent features was weakened by her agent, who swore that the movie would \"never be seen.\" The interviewee describes working with Fulci and his strange technical challenges, including the horror of creating horror with live maggots and rats, with MacColl expressing happiness that animal rights are more respected in modern productions. She recounts time with co-stars and offers thoughts on the legacy of \"The Gates of Hell,\" which was one of many \"Video Nasties\" to bear MacColl's name. The star closes with memories of the picture's initial release, and articulates  her ideas on the changing acceptance of genre work. [/list][list][*][b]\"We Are the Apocalypse\" [/b](53:00, HD) is a lengthy, somewhat rambling interview with screenwriter Dardano Sacchetti, who dives into his relationship with director Lucio Fulci, with the pair collaborating on multiple productions, including \"The Gates of Hell,\" which the interviewee declares their \"weakest film.\" Sacchetti discusses Fulci's career and sense of competition, their dealings with dubious producers, and the ups and downs of their personal relationship. Other features are discussed, including \"The Beyond\" and \"Manhattan Baby,\" and the interviewee makes time to get a little existential about his life and time in the Italian film industry. [/list][list][*][b]\"Building Fulci's City\"[/b] (37:34, HD) is a lengthy appreciation piece from author Stephen Thrower, who delves into Lucio Fulci's career after he scored a hit with \"Zombi 2.\" Thrower details the long road to \"The Gates of Hell,\" spotlights Fulci's on-set behavior and relationship with actress Catriona MacColl, and shares other casting tidbits. The interviewee primarily examines story points and editing panic, with so much of \"The Gates of Hell\" left a mystery due to the speedy production period. There's also a fair amount of critical analysis. [/list][list][*][b]\"They Call Him 'Bombardone'\"[/b] (26:55, HD) is an interview with special effects artist Gino De Rossi, who details his working relationship with Lucio Fulci, getting along with the helmer, who wasn't shy about revealing his temper with others. Technical achievements from \"The Gates of Hell\" are shared, with Rossi showing off a few props and mechanisms he's kept over the years.[/list][list][*][b]\"Tales of Friendship\"[/b] (30:49, HD) is an interview with director of photography Sergio Salvati, who made 12 movies with Lucio Fulci, exploring their working relationship over the years. Technical achievements from \"The Gates of Hell\" are shared, along with camera talk, with Salvati admitting to an abuse of zoom from Italian filmmakers. Some secrets are shared from \"The Beyond,\" and the interviewee looks back at the highlights of his career, sharing an amazing anecdote about working with Maria Callas. [/list][list][*][b]\"Dust in the Wind\"[/b] (13:14, HD) is an interview with camera operator Roberto Forges Davanzati, who examines his career education, learning from Italian directors as he enjoyed many professional adventures. Davanzati inspects his working relationship with Sergio Salvati, and Lucio Fulci, commenting on his famous temper, which was mostly reserved for actors. Technical achievements from \"The Gates of Hell\" are also shared. [/list][list][*][b]\"The Art of Dreaming\" [/b](45:50, HD) is an interview with production designer Antonio Geleng, who was actually a fan of Lucio Fulci before receiving a chance to work with the director. Geleng explores his anxiety about joining an already established crew, and production struggles while working in Georgia, which wasn't a scary enough location for the picture. His working relationship with Fulci is detailed, exploring the helmer's creative inspirations found in art and literature. Select technical achievements are highlighted, including the creation of a special coffin for Catriona MacColl to freak out in, and Geleng shares information on costuming, with the producers pushing the actors to wear their own clothes to help save money.[/list][list][*][b]\"The Dead Are Alive!\"[/b] (25:26, HD) is a video essay from Kat Ellinger.[/list][list][*][b]\"Reflections on Fulci\"[/b] (26:50, HD) is an appreciation piece from horror enthusiast Andy Nyman. [/list][list][*][b]\"I Walked with a Zombie\"[/b] (22:49, HD) is an interview with actor Giovanni Lombardo Radice, who admits he's not a fan of horror. However, employment opportunities kept him in the genre, which also brought him to Georgia multiple times. Thoughts on character are shared, and Radice explores Lucio Fulci's temper on-set, prone to white-hot flashes of rage. The interviewee also examines the famous drill scene, assesses his co-stars, and admits that most of his time away from the camera during the shoot was spent smoking marijuana. [/list][list][*][b]\"The Horror Family\"[/b] (19:14, HD) is a very entertaining chat with Venantino Venantini and his son, Luca, who both appeared in \"The Gates of Hell.\" Dad is quite the character, sharing his thoughts on Fulci, special effects, and his career, also praising the American horror convention circuit, which offers big money for fan interactions. Son offers his take on the production experience, also exploring his appreciation for his father's career as the man gets up there in age. [/list][list][*][b]Alternate Title Sequences[/b] present English (2:20, HD) and Italian (3:13, HD). [/list][list][*][b]Radio Spots[/b] (:57) include two commercials for the film.[/list][b]And an Italian Trailer (3:01, HD) and an English Trailer (3:01, HD) are included.[/b]\r\n\r\n[url=http://www.imagebam.com/image/6fe0321348163952][img]https://thumbs2.imagebam.com/72/1a/b1/6fe0321348163952.jpg[/img][/url] [url=http://www.imagebam.com/image/2c04d01348163958][img]https://thumbs2.imagebam.com/9e/0a/36/2c04d01348163958.jpg[/img][/url] [url=http://www.imagebam.com/image/4a8efa1348163964][img]https://thumbs2.imagebam.com/e9/5a/93/4a8efa1348163964.jpg[/img][/url] [url=http://www.imagebam.com/image/1b70891348163968][img]https://thumbs2.imagebam.com/bd/4c/07/1b70891348163968.jpg[/img][/url] [url=http://www.imagebam.com/image/f571721348163971][img]https://thumbs2.imagebam.com/60/c1/a2/f571721348163971.jpg[/img][/url] [url=http://www.imagebam.com/image/f311891348163978][img]https://thumbs2.imagebam.com/de/fb/b7/f311891348163978.jpg[/img][/url]",
                "info_hash": "fe1fe38d3fd4f0e8667f243f789e859e5990c7b5",
                "size": 46497535096,
                "num_file": 126,
                "freeleech": "0%",
                "double_upload": 0,
                "internal": 0,
                "uploader": "heavytrip",
                "seeders": 2,
                "leechers": 0,
                "times_completed": 6,
                "tmdb_id": "24920",
                "imdb_id": "0081318",
                "tvdb_id": "0",
                "mal_id": "0",
                "igdb_id": "0",
                "category_id": 1,
                "type_id": 1,
                "resolution_id": 2,
                "region_id": 236,
                "created_at": "2021-08-13T19:19:02.000000Z",
                "download_link": "http://localhost:5000/torrent/download/100918.5b7ea911c9827216bacda80c69d7b9d0",
                "details_link": "http://localhost:5000/torrents/100918"
            }
        },
        {
            "type": "torrent",
            "id": "100536",
            "attributes": {
                "poster": "https://image.tmdb.org/t/p/w92/8ymAiDW9ct2GSywWkqATEiKE8OB.jpg",
                "name": "City of the Living Dead 1980 1080p BluRay REMUX AVC DTS-HD MA 5.1",
                "release_year": "1980",
                "category": "Movie",
                "type": "Remux",
                "resolution": "1080p",
                "media_info": "General\r\nUnique ID                                : 128363157926116041841014479340957083934 (0x6091D84F5685B271384EB9973978291E)\r\nComplete name                            : City.of.the.Living.Dead.1980.4K.Restoration.1080p.BluRay.REMUX.AVC.DTS-HD.MA.5.1.mkv\r\nFormat                                   : Matroska\r\nFormat version                           : Version 4\r\nFile size                                : 23.4 GiB\r\nDuration                                 : 1 h 32 min\r\nOverall bit rate mode                    : Variable\r\nOverall bit rate                         : 36.0 Mb/s\r\nMovie name                               : The Gates of Hell\r\nEncoded date                             : UTC 2020-06-24 01:34:40\r\nWriting application                      : mkvmerge v46.0.0 ('No Deeper Escape') 64-bit\r\nWriting library                          : libebml v1.3.10 + libmatroska v1.5.2\r\nCover                                    : Yes\r\nAttachments                              : cover.jpg\r\n\r\nVideo\r\nID                                       : 1\r\nID in the original source medium         : 4113 (0x1011)\r\nFormat                                   : AVC\r\nFormat/Info                              : Advanced Video Codec\r\nFormat profile                           : High@L4.1\r\nFormat settings                          : CABAC / 4 Ref Frames\r\nFormat settings, CABAC                   : Yes\r\nFormat settings, Reference frames        : 4 frames\r\nCodec ID                                 : V_MPEG4/ISO/AVC\r\nDuration                                 : 1 h 32 min\r\nBit rate mode                            : Variable\r\nBit rate                                 : 29.9 Mb/s\r\nMaximum bit rate                         : 35.0 Mb/s\r\nWidth                                    : 1 920 pixels\r\nHeight                                   : 1 080 pixels\r\nDisplay aspect ratio                     : 16:9\r\nFrame rate mode                          : Constant\r\nFrame rate                               : 24.000 FPS\r\nColor space                              : YUV\r\nChroma subsampling                       : 4:2:0\r\nBit depth                                : 8 bits\r\nScan type                                : Progressive\r\nBits/(Pixel*Frame)                       : 0.600\r\nStream size                              : 19.3 GiB (83%)\r\nDefault                                  : Yes\r\nForced                                   : No\r\nOriginal source medium                   : Blu-ray\r\n\r\nAudio #1\r\nID                                       : 2\r\nID in the original source medium         : 4352 (0x1100)\r\nFormat                                   : DTS XLL\r\nFormat/Info                              : Digital Theater Systems\r\nCommercial name                          : DTS-HD Master Audio\r\nCodec ID                                 : A_DTS\r\nDuration                                 : 1 h 32 min\r\nBit rate mode                            : Variable\r\nBit rate                                 : 3 493 kb/s\r\nChannel(s)                               : 6 channels\r\nChannel layout                           : C L R Ls Rs LFE\r\nSampling rate                            : 48.0 kHz\r\nFrame rate                               : 93.750 FPS (512 SPF)\r\nBit depth                                : 24 bits\r\nCompression mode                         : Lossless\r\nStream size                              : 2.26 GiB (10%)\r\nTitle                                    : English dub\r\nLanguage                                 : English\r\nDefault                                  : Yes\r\nForced                                   : No\r\nOriginal source medium                   : Blu-ray\r\n\r\nAudio #2\r\nID                                       : 3\r\nID in the original source medium         : 4355 (0x1103)\r\nFormat                                   : DTS XLL\r\nFormat/Info                              : Digital Theater Systems\r\nCommercial name                          : DTS-HD Master Audio\r\nCodec ID                                 : A_DTS\r\nDuration                                 : 1 h 32 min\r\nBit rate mode                            : Variable\r\nBit rate                                 : 1 816 kb/s\r\nChannel(s)                               : 2 channels\r\nChannel layout                           : L R\r\nSampling rate                            : 48.0 kHz\r\nFrame rate                               : 93.750 FPS (512 SPF)\r\nBit depth                                : 24 bits\r\nCompression mode                         : Lossless\r\nStream size                              : 1.18 GiB (5%)\r\nTitle                                    : Italian\r\nLanguage                                 : Italian\r\nDefault                                  : No\r\nForced                                   : No\r\nOriginal source medium                   : Blu-ray\r\n\r\nAudio #3\r\nID                                       : 4\r\nID in the original source medium         : 4356 (0x1104)\r\nFormat                                   : AC-3\r\nFormat/Info                              : Audio Coding 3\r\nCommercial name                          : Dolby Digital\r\nCodec ID                                 : A_AC3\r\nDuration                                 : 1 h 32 min\r\nBit rate mode                            : Constant\r\nBit rate                                 : 192 kb/s\r\nChannel(s)                               : 2 channels\r\nChannel layout                           : L R\r\nSampling rate                            : 48.0 kHz\r\nFrame rate                               : 31.250 FPS (1536 SPF)\r\nCompression mode                         : Lossy\r\nStream size                              : 127 MiB (1%)\r\nTitle                                    : Commentary by  film historians Troy Howarth and Nathaniel Thompson\r\nLanguage                                 : English\r\nService kind                             : Complete Main\r\nDefault                                  : No\r\nForced                                   : No\r\nOriginal source medium                   : Blu-ray\r\n\r\nAudio #4\r\nID                                       : 5\r\nID in the original source medium         : 4357 (0x1105)\r\nFormat                                   : AC-3\r\nFormat/Info                              : Audio Coding 3\r\nCommercial name                          : Dolby Digital\r\nCodec ID                                 : A_AC3\r\nDuration                                 : 1 h 32 min\r\nBit rate mode                            : Constant\r\nBit rate                                 : 192 kb/s\r\nChannel(s)                               : 2 channels\r\nChannel layout                           : L R\r\nSampling rate                            : 48.0 kHz\r\nFrame rate                               : 31.250 FPS (1536 SPF)\r\nCompression mode                         : Lossy\r\nStream size                              : 127 MiB (1%)\r\nTitle                                    : Commentary by DP Sergio Salvati, camera operator Roberto Forges Davanzati and film professor Paolo Albiero\r\nLanguage                                 : Italian\r\nService kind                             : Complete Main\r\nDefault                                  : No\r\nForced                                   : No\r\nOriginal source medium                   : Blu-ray\r\n\r\nAudio #5\r\nID                                       : 6\r\nFormat                                   : AC-3\r\nFormat/Info                              : Audio Coding 3\r\nCommercial name                          : Dolby Digital\r\nCodec ID                                 : A_AC3\r\nDuration                                 : 1 h 32 min\r\nBit rate mode                            : Constant\r\nBit rate                                 : 192 kb/s\r\nChannel(s)                               : 2 channels\r\nChannel layout                           : L R\r\nSampling rate                            : 48.0 kHz\r\nFrame rate                               : 31.250 FPS (1536 SPF)\r\nCompression mode                         : Lossy\r\nStream size                              : 127 MiB (1%)\r\nTitle                                    : Commentary by actor Giovanni Lombardo Radice and writer Calum Waddell\r\nLanguage                                 : English\r\nService kind                             : Complete Main\r\nDefault                                  : No\r\nForced                                   : No\r\n\r\nAudio #6\r\nID                                       : 7\r\nFormat                                   : AC-3\r\nFormat/Info                              : Audio Coding 3\r\nCommercial name                          : Dolby Digital\r\nCodec ID                                 : A_AC3\r\nDuration                                 : 1 h 32 min\r\nBit rate mode                            : Constant\r\nBit rate                                 : 192 kb/s\r\nChannel(s)                               : 2 channels\r\nChannel layout                           : L R\r\nSampling rate                            : 48.0 kHz\r\nFrame rate                               : 31.250 FPS (1536 SPF)\r\nCompression mode                         : Lossy\r\nStream size                              : 127 MiB (1%)\r\nTitle                                    : Commentary by actor Catriona MacColl and journalist Jay Slater\r\nLanguage                                 : English\r\nService kind                             : Complete Main\r\nDefault                                  : No\r\nForced                                   : No\r\n\r\nText #1\r\nID                                       : 8\r\nID in the original source medium         : 4608 (0x1200)\r\nFormat                                   : PGS\r\nMuxing mode                              : zlib\r\nCodec ID                                 : S_HDMV/PGS\r\nCodec ID/Info                            : Picture based subtitle format used on BDs/HD-DVDs\r\nDuration                                 : 1 h 31 min\r\nBit rate                                 : 48.3 kb/s\r\nCount of elements                        : 1746\r\nStream size                              : 31.6 MiB (0%)\r\nTitle                                    : English SDH for English audio track\r\nLanguage                                 : English\r\nDefault                                  : Yes\r\nForced                                   : No\r\nOriginal source medium                   : Blu-ray\r\n\r\nText #2\r\nID                                       : 9\r\nID in the original source medium         : 4609 (0x1201)\r\nFormat                                   : PGS\r\nMuxing mode                              : zlib\r\nCodec ID                                 : S_HDMV/PGS\r\nCodec ID/Info                            : Picture based subtitle format used on BDs/HD-DVDs\r\nDuration                                 : 1 h 28 min\r\nBit rate                                 : 32.1 kb/s\r\nCount of elements                        : 1022\r\nStream size                              : 20.4 MiB (0%)\r\nTitle                                    : English for Italian audio track\r\nLanguage                                 : English\r\nDefault                                  : No\r\nForced                                   : No\r\nOriginal source medium                   : Blu-ray\r\n\r\nText #3\r\nID                                       : 10\r\nID in the original source medium         : 4610 (0x1202)\r\nFormat                                   : PGS\r\nMuxing mode                              : zlib\r\nCodec ID                                 : S_HDMV/PGS\r\nCodec ID/Info                            : Picture based subtitle format used on BDs/HD-DVDs\r\nDuration                                 : 1 h 32 min\r\nBit rate                                 : 98.5 kb/s\r\nCount of elements                        : 2688\r\nStream size                              : 65.2 MiB (0%)\r\nTitle                                    : English for Italian commentary\r\nLanguage                                 : English\r\nDefault                                  : No\r\nForced                                   : No\r\nOriginal source medium                   : Blu-ray\r\n\r\nMenu\r\n00:00:00.000                             : en:Chapter 1\r\n00:08:49.708                             : en:Chapter 2\r\n00:17:15.625                             : en:Chapter 3\r\n00:26:26.791                             : en:Chapter 4\r\n00:35:11.458                             : en:Chapter 5\r\n00:42:38.458                             : en:Chapter 6\r\n00:51:17.458                             : en:Chapter 7\r\n00:58:57.750                             : en:Chapter 8\r\n01:08:14.625                             : en:Chapter 9\r\n01:18:26.750                             : en:Chapter 10",
                "bd_info": null,
                "description": "[url=https://ibb.co/N9Ty25y][img]https://i.ibb.co/N9Ty25y/vlcsnap-2021-08-10-22h20m57s253.png[/img][/url] [url=https://ibb.co/xG2fWtx][img]https://i.ibb.co/xG2fWtx/vlcsnap-2021-08-10-22h19m34s852.png[/img][/url] [url=https://ibb.co/5Ywpg9S][img]https://i.ibb.co/5Ywpg9S/vlcsnap-2021-08-10-22h19m13s945.png[/img][/url] [url=https://ibb.co/NrjM0W0][img]https://i.ibb.co/NrjM0W0/vlcsnap-2021-08-10-22h18m49s315.png[/img][/url] [url=https://ibb.co/34yngjq][img]https://i.ibb.co/34yngjq/vlcsnap-2021-08-10-22h18m40s651.png[/img][/url] [url=https://ibb.co/1rKzM7T][img]https://i.ibb.co/1rKzM7T/vlcsnap-2021-08-10-22h18m26s047.png[/img][/url]",
                "info_hash": "f302ae9f61a83bdd7b45660b02c5e194e9971b9f",
                "size": 25078192018,
                "num_file": 1,
                "freeleech": "0%",
                "double_upload": 0,
                "internal": 0,
                "uploader": "Anonymous",
                "seeders": 2,
                "leechers": 0,
                "times_completed": 5,
                "tmdb_id": "24920",
                "imdb_id": "0081318",
                "tvdb_id": "0",
                "mal_id": "0",
                "igdb_id": "0",
                "category_id": 1,
                "type_id": 3,
                "resolution_id": 2,
                "created_at": "2021-08-10T15:11:14.000000Z",
                "download_link": "http://localhost:5000/torrent/download/100536.5b7ea911c9827216bacda80c69d7b9d0",
                "details_link": "http://localhost:5000/torrents/100536"
            }
        },
        {
            "type": "torrent",
            "id": "65501",
            "attributes": {
                "poster": "https://image.tmdb.org/t/p/w92/8ymAiDW9ct2GSywWkqATEiKE8OB.jpg",
                "name": "Gates of Hell AKA City of the Living Dead 1980 Psycho from Texas 1981 1080p Blu-ray AVC DTS-HD MA 2.0-GSeye",
                "release_year": "1980",
                "category": "Movie",
                "type": "Full Disc",
                "resolution": "1080p",
                "region": "VIN",
                "media_info": null,
                "bd_info": null,
                "description": "[font=Comic Sans MS][color=#ff00ff][size=29][size=18]This is Number #6 in the Drive-in Theatre Double Feature Series released by Dark Force Entertainment.\r\nMy Rip - Enjoy (GSeye)[/size][/size][/color][/font][size=18]\r\n[/size]\r\n[spoiler=Gates of Hell (1980) BDInfo\r\n]QUICK SUMMARY:\r\n\r\nDisc Label: Drive-in Series #6 - Gates of Hell AKA City of the Living Dead (1980) & Psycho from Texas (1981)-GSeye\r\nDisc Size: 47,691,547,031 bytes\r\nProtection: AACS\r\nPlaylist: 00003.MPLS\r\nSize: 22,654,715,904 bytes\r\nLength: 1:32:46.060\r\nTotal Bitrate: 32.56 Mbps\r\nVideo: MPEG-4 AVC Video / 29064 kbps / 1080p / 23.976 fps / 16:9 / High Profile 4.1\r\nAudio: English / DTS-HD Master Audio / 2.0 / 48 kHz /  1807 kbps / 24-bit (DTS Core: 2.0 / 48 kHz /  1509 kbps / 24-bit)[/spoiler]\r\n\r\n[spoiler=Psycho from Texas (1981) BDInfo\r\n]QUICK SUMMARY:\r\n\r\nDisc Label: Drive-in Series #6 - Gates of Hell AKA City of the Living Dead (1980) & Psycho from Texas (1981)-GSeye\r\nDisc Size: 47,691,547,031 bytes\r\nProtection: AACS\r\nPlaylist: 00004.MPLS\r\nSize: 21,543,407,616 bytes\r\nLength: 1:29:38.081\r\nTotal Bitrate: 32.05 Mbps\r\nVideo: MPEG-4 AVC Video / 28534 kbps / 1080p / 23.976 fps / 16:9 / High Profile 4.1\r\nAudio: English / DTS-HD Master Audio / 2.0 / 48 kHz /  1877 kbps / 24-bit (DTS Core: 2.0 / 48 kHz /  1509 kbps / 24-bit)[/spoiler]\r\n\r\n[url=http://imgbox.com/X9WJKFjH][img]https://thumbs2.imgbox.com/08/b3/X9WJKFjH_t.jpg[/img][/url]",
                "info_hash": "4ae62d29b2aa86132b4ef7501cd53e2601085ffc",
                "size": 47691547031,
                "num_file": 63,
                "freeleech": "0%",
                "double_upload": 0,
                "internal": 0,
                "uploader": "Kreeper",
                "seeders": 3,
                "leechers": 0,
                "times_completed": 17,
                "tmdb_id": "24920",
                "imdb_id": "0081318",
                "tvdb_id": "0",
                "mal_id": "0",
                "igdb_id": "0",
                "category_id": 1,
                "type_id": 1,
                "resolution_id": 2,
                "region_id": 236,
                "created_at": "2020-10-29T13:26:44.000000Z",
                "download_link": "http://localhost:5000/torrent/download/65501.5b7ea911c9827216bacda80c69d7b9d0",
                "details_link": "http://localhost:5000/torrents/65501"
            }
        },
        {
            "type": "torrent",
            "id": "40299",
            "attributes": {
                "poster": "https://image.tmdb.org/t/p/w92/8ymAiDW9ct2GSywWkqATEiKE8OB.jpg",
                "name": "City of the Living Dead 1980 1080p BluRay REMUX AVC DTS-HD MA 5.1-PmP",
                "release_year": "1980",
                "category": "Movie",
                "type": "Remux",
                "resolution": "1080p",
                "media_info": "General\r\nUnique ID                                : 148171648457976820623792085059865490019 (0x6F78D24BB0BD251E53577EBBBE093263)\r\nComplete name                            : City.of.the.Living.Dead.1980.1080p.BluRay.REMUX.AVC.DTS-HD.MA.5.1-PmP.mkv\r\nFormat                                   : Matroska\r\nFormat version                           : Version 4 / Version 2\r\nFile size                                : 23.1 GiB\r\nDuration                                 : 1 h 32 min\r\nOverall bit rate mode                    : Variable\r\nOverall bit rate                         : 35.7 Mb/s\r\nEncoded date                             : UTC 2018-10-15 18:06:57\r\nWriting application                      : mkvmerge v26.0.0 ('In The Game') 64-bit\r\nWriting library                          : libebml v1.3.6 + libmatroska v1.4.9\r\n\r\nVideo\r\nID                                       : 1\r\nFormat                                   : AVC\r\nFormat/Info                              : Advanced Video Codec\r\nFormat profile                           : High@L4.1\r\nFormat settings                          : CABAC / 3 Ref Frames\r\nFormat settings, CABAC                   : Yes\r\nFormat settings, ReFrames                : 3 frames\r\nCodec ID                                 : V_MPEG4/ISO/AVC\r\nDuration                                 : 1 h 32 min\r\nBit rate mode                            : Variable\r\nBit rate                                 : 30.8 Mb/s\r\nMaximum bit rate                         : 37.0 Mb/s\r\nWidth                                    : 1 920 pixels\r\nHeight                                   : 1 080 pixels\r\nDisplay aspect ratio                     : 16:9\r\nFrame rate mode                          : Constant\r\nFrame rate                               : 23.976 (24000/1001) FPS\r\nColor space                              : YUV\r\nChroma subsampling                       : 4:2:0\r\nBit depth                                : 8 bits\r\nScan type                                : Progressive\r\nBits/(Pixel*Frame)                       : 0.620\r\nStream size                              : 20.0 GiB (86%)\r\nTitle                                    : MPEG-4 AVC Video / 30811 kbps / 1080p / 23.976 fps / 16:9 / High Profile 4.1\r\nLanguage                                 : English\r\nDefault                                  : Yes\r\nForced                                   : No\r\nColor range                              : Limited\r\nColor primaries                          : BT.709\r\nTransfer characteristics                 : BT.709\r\nMatrix coefficients                      : BT.709\r\n\r\nAudio #1\r\nID                                       : 2\r\nFormat                                   : DTS\r\nFormat/Info                              : Digital Theater Systems\r\nFormat profile                           : MA / Core\r\nCodec ID                                 : A_DTS\r\nDuration                                 : 1 h 32 min\r\nBit rate mode                            : Variable / Constant\r\nBit rate                                 : 1 067 kb/s / 768 kb/s\r\nChannel(s)                               : 1 channel\r\nChannel positions                        : Front: C\r\nSampling rate                            : 48.0 kHz\r\nFrame rate                               : 93.750 FPS (512 SPF)\r\nBit depth                                : 24 bits\r\nCompression mode                         : Lossless / Lossy\r\nStream size                              : 708 MiB (3%)\r\nTitle                                    : Original Italian Mono / DTS-HD Master Audio / 1.0 / 48 kHz / 1067 kbps / 24-bit\r\nLanguage                                 : Italian\r\nDefault                                  : Yes\r\nForced                                   : No\r\n\r\nAudio #2\r\nID                                       : 3\r\nFormat                                   : DTS\r\nFormat/Info                              : Digital Theater Systems\r\nFormat profile                           : MA / Core\r\nCodec ID                                 : A_DTS\r\nDuration                                 : 1 h 32 min\r\nBit rate mode                            : Variable / Constant\r\nBit rate                                 : 3 349 kb/s / 768 kb/s\r\nChannel(s)                               : 6 channels\r\nChannel positions                        : Front: L C R, Side: L R, LFE\r\nSampling rate                            : 48.0 kHz\r\nFrame rate                               : 93.750 FPS (512 SPF)\r\nBit depth                                : 24 bits\r\nCompression mode                         : Lossless / Lossy\r\nStream size                              : 2.17 GiB (9%)\r\nTitle                                    : English Dub / DTS-HD Master Audio / 5.1 / 48 kHz / 3349 kbps / 24-bit\r\nLanguage                                 : English\r\nDefault                                  : No\r\nForced                                   : No\r\n\r\nAudio #3\r\nID                                       : 4\r\nFormat                                   : AC-3\r\nFormat/Info                              : Audio Coding 3\r\nCodec ID                                 : A_AC3\r\nDuration                                 : 1 h 32 min\r\nBit rate mode                            : Constant\r\nBit rate                                 : 192 kb/s\r\nChannel(s)                               : 2 channels\r\nChannel positions                        : Front: L R\r\nSampling rate                            : 48.0 kHz\r\nFrame rate                               : 31.250 FPS (1536 SPF)\r\nBit depth                                : 16 bits\r\nCompression mode                         : Lossy\r\nStream size                              : 127 MiB (1%)\r\nTitle                                    : Commentary by actor Catriona MacColl and journalist Jay Slater\r\nLanguage                                 : English\r\nService kind                             : Complete Main\r\nDefault                                  : No\r\nForced                                   : No\r\n\r\nAudio #4\r\nID                                       : 5\r\nFormat                                   : AC-3\r\nFormat/Info                              : Audio Coding 3\r\nCodec ID                                 : A_AC3\r\nDuration                                 : 1 h 32 min\r\nBit rate mode                            : Constant\r\nBit rate                                 : 192 kb/s\r\nChannel(s)                               : 2 channels\r\nChannel positions                        : Front: L R\r\nSampling rate                            : 48.0 kHz\r\nFrame rate                               : 31.250 FPS (1536 SPF)\r\nBit depth                                : 16 bits\r\nCompression mode                         : Lossy\r\nStream size                              : 127 MiB (1%)\r\nTitle                                    : Commentary by actor Giovanni Lombardo Radice and writer Calum Waddell\r\nLanguage                                 : English\r\nService kind                             : Complete Main\r\nDefault                                  : No\r\nForced                                   : No\r\n\r\nText #1\r\nID                                       : 6\r\nFormat                                   : PGS\r\nCodec ID                                 : S_HDMV/PGS\r\nCodec ID/Info                            : Picture based subtitle format used on BDs/HD-DVDs\r\nDuration                                 : 1 h 29 min\r\nBit rate                                 : 17.8 kb/s\r\nCount of elements                        : 1026\r\nStream size                              : 11.4 MiB (0%)\r\nTitle                                    : English subtitles for Italian audio track\r\nLanguage                                 : English\r\nDefault                                  : Yes\r\nForced                                   : No\r\n\r\nText #2\r\nID                                       : 7\r\nFormat                                   : PGS\r\nCodec ID                                 : S_HDMV/PGS\r\nCodec ID/Info                            : Picture based subtitle format used on BDs/HD-DVDs\r\nDuration                                 : 1 h 31 min\r\nBit rate                                 : 27.2 kb/s\r\nCount of elements                        : 1762\r\nStream size                              : 17.8 MiB (0%)\r\nTitle                                    : English SDH for English dub audio track\r\nLanguage                                 : English\r\nDefault                                  : No\r\nForced                                   : No\r\n\r\nMenu\r\n00:00:00.000                             : en:Chapter 1\r\n00:08:49.404                             : en:Chapter 2\r\n00:17:15.618                             : en:Chapter 3\r\n00:24:38.644                             : en:Chapter 4\r\n00:32:52.512                             : en:Chapter 5\r\n00:39:14.519                             : en:Chapter 6\r\n00:45:55.586                             : en:Chapter 7\r\n00:55:05.052                             : en:Chapter 8\r\n01:00:18.114                             : en:Chapter 9\r\n01:08:12.255                             : en:Chapter 10\r\n01:16:25.581                             : en:Chapter 11\r\n01:24:13.757                             : en:Chapter 12",
                "bd_info": null,
                "description": "[url=https://i.ibb.co/bPGqNqN/Image0.png][img]https://i.ibb.co/PTDC7BH/Thumbnail0.jpg[/img][/url][url=https://i.ibb.co/wWyvJLg/Image1.png][img]https://i.ibb.co/nn4zKR0/Thumbnail1.jpg[/img][/url][url=https://i.ibb.co/hg9kpJ6/Image2.png][img]https://i.ibb.co/Cb1YFBK/Thumbnail2.jpg[/img][/url][url=https://i.ibb.co/TM2Mvk7/Image3.png][img]https://i.ibb.co/xSHsZLK/Thumbnail3.jpg[/img][/url][url=https://i.ibb.co/yyDQKfZ/Image4.png][img]https://i.ibb.co/5cKsRxd/Thumbnail4.jpg[/img][/url][url=https://i.ibb.co/wsSSnHj/Image5.png][img]https://i.ibb.co/BCTjFCw/Thumbnail5.jpg[/img][/url]",
                "info_hash": "4508efaf135279c0fcef4d4bb2592c20d16387c4",
                "size": 24811157646,
                "num_file": 1,
                "freeleech": "0%",
                "double_upload": 0,
                "internal": 0,
                "uploader": "Peterlol2x",
                "seeders": 6,
                "leechers": 0,
                "times_completed": 18,
                "tmdb_id": "24920",
                "imdb_id": "0081318",
                "tvdb_id": null,
                "mal_id": "0",
                "igdb_id": "0",
                "category_id": 1,
                "type_id": 3,
                "resolution_id": 2,
                "created_at": "2020-01-04T14:26:53.000000Z",
                "download_link": "http://localhost:5000/torrent/download/40299.5b7ea911c9827216bacda80c69d7b9d0",
                "details_link": "http://localhost:5000/torrents/40299"
            }
        },
        {
            "type": "torrent",
            "id": "38119",
            "attributes": {
                "poster": "https://image.tmdb.org/t/p/w92/8ymAiDW9ct2GSywWkqATEiKE8OB.jpg",
                "name": "Paura nella città dei morti viventi AKA City of the Living Dead 1980 1080p BluRay OPUS 1.0 x265-m3th",
                "release_year": "1980",
                "category": "Movie",
                "type": "Encode",
                "resolution": "1080p",
                "media_info": "General\r\nUnique ID                                : 134494626281237035078810169302395301962 (0x652EB90A2B542F6C7339EACFCA8AB04A)\r\nComplete name                            : Paura nella città dei morti viventi 1980 BluRay 1080p OPUS 1.0 x265-m3th.mkv\r\nFormat                                   : Matroska\r\nFormat version                           : Version 4\r\nFile size                                : 2.49 GiB\r\nDuration                                 : 1 h 32 min\r\nOverall bit rate                         : 3 849 kb/s\r\nEncoded date                             : UTC 2019-11-24 11:14:46\r\nWriting application                      : mkvmerge v38.0.0 ('The Silent Type') 64-bit\r\nWriting library                          : libebml v1.3.9 + libmatroska v1.5.2\r\n\r\nVideo\r\nID                                       : 1\r\nFormat                                   : HEVC\r\nFormat/Info                              : High Efficiency Video Coding\r\nFormat profile                           : Main 10@L4@Main\r\nCodec ID                                 : V_MPEGH/ISO/HEVC\r\nDuration                                 : 1 h 32 min\r\nBit rate                                 : 3 518 kb/s\r\nWidth                                    : 1 920 pixels\r\nHeight                                   : 1 040 pixels\r\nDisplay aspect ratio                     : 1.85:1\r\nFrame rate mode                          : Constant\r\nFrame rate                               : 23.976 (24000/1001) FPS\r\nColor space                              : YUV\r\nChroma subsampling                       : 4:2:0\r\nBit depth                                : 10 bits\r\nBits/(Pixel*Frame)                       : 0.073\r\nStream size                              : 2.28 GiB (91%)\r\nWriting library                          : x265 3.2+6-f46aa2bc1c34:[Windows][GCC 6.3.0][64 bit] 10bit\r\nEncoding settings                        : cpuid=1111039 / frame-threads=3 / numa-pools=8 / wpp / no-pmode / no-pme / no-psnr / no-ssim / log-level=2 / input-csp=1 / input-res=1920x1040 / interlace=0 / total-frames=133446 / level-idc=0 / high-tier=1 / uhd-bd=0 / ref=2 / no-allow-non-conformance / no-repeat-headers / annexb / no-aud / no-hrd / info / hash=0 / no-temporal-layers / open-gop / min-keyint=32 / keyint=250 / gop-lookahead=0 / bframes=4 / b-adapt=0 / b-pyramid / bframe-bias=0 / rc-lookahead=15 / lookahead-slices=6 / scenecut=40 / radl=0 / no-splice / no-intra-refresh / ctu=64 / min-cu-size=8 / no-rect / no-amp / max-tu-size=32 / tu-inter-depth=1 / tu-intra-depth=1 / limit-tu=0 / rdoq-level=0 / dynamic-rd=0.00 / no-ssim-rd / signhide / no-tskip / nr-intra=0 / nr-inter=0 / no-constrained-intra / strong-intra-smoothing / max-merge=2 / limit-refs=3 / no-limit-modes / me=2 / subme=3 / merange=57 / temporal-mvp / no-frame-dup / no-hme / weightp / weightb / no-analyze-src-pics / deblock=0:0 / sao / no-sao-non-deblock / rd=3 / selective-sao=4 / early-skip / no-rskip / fast-intra / no-tskip-fast / no-cu-lossless / no-b-intra / no-splitrd-skip / rdpenalty=0 / psy-rd=2.00 / psy-rdoq=0.00 / no-rd-refine / no-lossless / cbqpoffs=0 / crqpoffs=0 / rc=crf / crf=20.0 / qcomp=0.60 / qpstep=4 / stats-write=0 / stats-read=0 / ipratio=1.40 / pbratio=1.30 / aq-mode=3 / aq-strength=0.60 / cutree / zone-count=0 / no-strict-cbr / qg-size=64 / rc-grain / qpmax=51 / qpmin=0 / const-vbv / sar=0 / overscan=0 / videoformat=5 / range=0 / colorprim=1 / transfer=1 / colormatrix=1 / chromaloc=0 / display-window=0 / cll=0,0 / min-luma=0 / max-luma=1023 / log2-max-poc-lsb=8 / vui-timing-info / vui-hrd-info / slices=1 / no-opt-qp-pps / no-opt-ref-list-length-pps / no-multi-pass-opt-rps / scenecut-bias=0.05 / no-opt-cu-delta-qp / no-aq-motion / no-hdr / no-hdr-opt / no-dhdr10-opt / no-idr-recovery-sei / analysis-reuse-level=5 / scale-factor=0 / refine-intra=0 / refine-inter=0 / refine-mv=1 / refine-ctu-distortion=0 / no-limit-sao / ctu-info=0 / no-lowpass-dct / refine-analysis-type=0 / copy-pic=1 / max-ausize-factor=1.0 / no-dynamic-refine / no-single-sei / no-hevc-aq / no-svt / no-field / qp-adaptation-range=1.00\r\nDefault                                  : Yes\r\nForced                                   : No\r\nColor range                              : Limited\r\nColor primaries                          : BT.709\r\nTransfer characteristics                 : BT.709\r\nMatrix coefficients                      : BT.709\r\n\r\nAudio #1\r\nID                                       : 2\r\nFormat                                   : Opus\r\nCodec ID                                 : A_OPUS\r\nDuration                                 : 1 h 32 min\r\nBit rate                                 : 157 kb/s\r\nChannel(s)                               : 1 channel\r\nChannel layout                           : C\r\nSampling rate                            : 48.0 kHz\r\nFrame rate                               : 50.000 FPS (960 SPF)\r\nCompression mode                         : Lossy\r\nStream size                              : 104 MiB (4%)\r\nLanguage                                 : English\r\nDefault                                  : Yes\r\nForced                                   : No\r\n\r\nAudio #2\r\nID                                       : 3\r\nFormat                                   : Opus\r\nCodec ID                                 : A_OPUS\r\nDuration                                 : 1 h 32 min\r\nBit rate                                 : 154 kb/s\r\nChannel(s)                               : 1 channel\r\nChannel layout                           : C\r\nSampling rate                            : 48.0 kHz\r\nFrame rate                               : 50.000 FPS (960 SPF)\r\nCompression mode                         : Lossy\r\nStream size                              : 102 MiB (4%)\r\nLanguage                                 : Italian\r\nDefault                                  : No\r\nForced                                   : No\r\n\r\nText #1\r\nID                                       : 4\r\nFormat                                   : PGS\r\nMuxing mode                              : zlib\r\nCodec ID                                 : S_HDMV/PGS\r\nCodec ID/Info                            : Picture based subtitle format used on BDs/HD-DVDs\r\nDuration                                 : 1 h 31 min\r\nBit rate                                 : 27.2 kb/s\r\nCount of elements                        : 1762\r\nStream size                              : 17.8 MiB (1%)\r\nTitle                                    : Subtitles for English audio\r\nLanguage                                 : English\r\nDefault                                  : No\r\nForced                                   : No\r\n\r\nText #2\r\nID                                       : 5\r\nFormat                                   : PGS\r\nMuxing mode                              : zlib\r\nCodec ID                                 : S_HDMV/PGS\r\nCodec ID/Info                            : Picture based subtitle format used on BDs/HD-DVDs\r\nDuration                                 : 1 h 29 min\r\nBit rate                                 : 17.8 kb/s\r\nCount of elements                        : 1026\r\nStream size                              : 11.4 MiB (0%)\r\nTitle                                    : Subtitles for Italian audio\r\nLanguage                                 : English\r\nDefault                                  : No\r\nForced                                   : No\r\n\r\nMenu\r\n00:00:00.000                             : en:Chapter 01\r\n00:08:49.403                             : en:Chapter 02\r\n00:17:15.617                             : en:Chapter 03\r\n00:24:38.643                             : en:Chapter 04\r\n00:32:52.512                             : en:Chapter 05\r\n00:39:14.143                             : en:Chapter 06\r\n00:45:55.335                             : en:Chapter 07\r\n00:55:05.051                             : en:Chapter 08\r\n01:00:17.905                             : en:Chapter 09\r\n01:08:11.962                             : en:Chapter 10\r\n01:16:25.455                             : en:Chapter 11\r\n01:24:13.506                             : en:Chapter 12",
                "bd_info": null,
                "description": "The source was denoised before encoding using mClean denoiser, bear that in mind.\r\n\r\n[b]Source:[/b]\r\n[url=https://postimg.cc/TK740JFT][img]https://i.postimg.cc/TK740JFT/out1.png[/img][/url] [url=https://postimg.cc/q6Tbqbhx][img]https://i.postimg.cc/q6Tbqbhx/out2.png[/img][/url] [url=https://postimg.cc/2bv9zR65][img]https://i.postimg.cc/2bv9zR65/out3.png[/img][/url] [url=https://postimg.cc/06zHBJ1D][img]https://i.postimg.cc/06zHBJ1D/out4.png[/img][/url] [url=https://postimg.cc/dLJNKfKq][img]https://i.postimg.cc/dLJNKfKq/out5.png[/img][/url][b] [/b]\r\n\r\n[b]Encode:[/b]\r\n[url=https://postimg.cc/3Wx9SvjR][img]https://i.postimg.cc/3Wx9SvjR/out1.png[/img][/url] [url=https://postimg.cc/1gWVff8C][img]https://i.postimg.cc/1gWVff8C/out2.png[/img][/url] [url=https://postimg.cc/t1DWWBMz][img]https://i.postimg.cc/t1DWWBMz/out3.png[/img][/url] [url=https://postimg.cc/K4W70svq][img]https://i.postimg.cc/K4W70svq/out4.png[/img][/url] [url=https://postimg.cc/WdvkKRRn][img]https://i.postimg.cc/WdvkKRRn/out5.png[/img][/url] ",
                "info_hash": "9168352a00fd47f021d1b87476e1a10963b4ea5d",
                "size": 2677715339,
                "num_file": 1,
                "freeleech": "0%",
                "double_upload": 0,
                "internal": 0,
                "uploader": "TheRealThunderbolt",
                "seeders": 15,
                "leechers": 0,
                "times_completed": 33,
                "tmdb_id": "24920",
                "imdb_id": "0081318",
                "tvdb_id": "0",
                "mal_id": "0",
                "igdb_id": "0",
                "category_id": 1,
                "type_id": 12,
                "resolution_id": 2,
                "created_at": "2019-11-24T11:21:11.000000Z",
                "download_link": "http://localhost:5000/torrent/download/38119.5b7ea911c9827216bacda80c69d7b9d0",
                "details_link": "http://localhost:5000/torrents/38119"
            }
        },
        {
            "type": "torrent",
            "id": "19540",
            "attributes": {
                "poster": "https://image.tmdb.org/t/p/w92/8ymAiDW9ct2GSywWkqATEiKE8OB.jpg",
                "name": "City of the Living Dead / Paura nella città dei morti viventi 1980 [Remastered] 1080p GBR Blu-ray AVC DTS-HD MA 1.0-CultFilms™",
                "release_year": "1980",
                "category": "Movie",
                "type": "Full Disc",
                "resolution": "1080p",
                "region": "VIN",
                "media_info": null,
                "bd_info": null,
                "description": "[center]\r\n[size=15][u][b]Info:[/b][/u][/size]\r\n\r\n\r\nCity of the Living Dead (Italian: Paura nella città dei morti viventi (English translation: Fear in the City of the Living Dead)), also known as The Gates of Hell in the US, is a 1980 Italian horror film directed by Lucio Fulci. It is the first installment of the \"Gates of Hell\" trilogy which also includes The Beyond and The House by the Cemetery. Fulci makes a cameo appearance as Dr. Joe Thompson in the film. \r\n\r\n\r\n[size=15][u][b]Plot:[/b][/u][/size]\r\n\r\n\r\nFROM THE BOWELS OF THE EARTH THEY CAME... TO COLLECT THE LIVING!\r\n\r\nFrom the Italian godfather of gore, Lucio Fulci, comes City of the Living Dead, a notoriously nauseating, compellingly corporeal masterpiece of apocalyptic zombie horror!\r\n\r\nA medium has a mysterious vision of a priest hanging himself... A seemingly dead woman awakes screaming in her coffin... And in the sleepy New England town of Dunwich, a local girl vomits up her intestines and a town misfit has a drill-bit ploughed into his cranium... These hallucinogenic, often grotesque visions punctuate a skeletal story telling of a reporter (Christopher George, The Exterminator, Pieces) and a psychic (Catriona MacColl, The House by the Cemetery, The Beyond) who must race against time to prevent hordes of rotting corpses spewing forth from the gates of hell...\r\n\r\nStridently going beyond the classical stylings of his horror hit Zombie Flesh Eaters, City of the Living Dead sees Fulci eschew conventional narrative logic in favour of a delirious, oneiric mode of storytelling which stresses style, surrealism and atmosphere (as well as offering up bucket-loads of brains, blood and guts!) Presented here in an exclusive 4K restoration with a wealth of extras, Fulci s gore-drenched classic can now be devoured as never before!\r\n\r\n\r\n\r\n[size=15][u][b]Special Features:[/b][/u][/size]\r\n\r\n\r\n*Brand new restoration from a 4K scan of the original negative by Arrow Films\r\n*High Definition Blu-ray (1080p) presentation\r\n*Original uncompressed 1.0 mono and optional 5.1 DTS-HD Master Audio\r\n*Original English and Italian soundtracks\r\n*Newly translated, optional English subtitles for the deaf and hard of hearing for the English soundtrack\r\n*Newly translated English subtitles for the Italian soundtrack\r\n*Audio commentary with star Catriona MacColl and journalist Jay Slater\r\n*Audio commentary with star Giovanni Lombardo Radice and writer Calum Waddell\r\n*We Are the Apocalypse, new interview with writer Dardano Sacchetti\r\n*Through Your Eyes, new interview with Catriona MacColl\r\n*Dust in the Wind, new interview with cameraman Roberto Forges Davanzati\r\n*The Art of Dreaming, new interview with production designer Massimo Antonello Geleng\r\n*Tales of Friendship, new interview with cinematographer Sergio Salvati\r\n*I Walked with a Zombie, new interview with actor Giovanni Lombardo Radice\r\n*They Call Him \"Bombardone , new interview with special effects artist Gino De Rossi\r\n*The Horror Family, new interview with father and son actors Venantino and Luca Venantini\r\n*Previously unseen interview with composer Fabio Frizzi\r\n*Archival interview with actor Carlo De Mejo\r\n*Building Fulci s City, a new video interview with Stephen Thrower, author of the definitive tome, Beyond Terror: The Films of Lucio Fulci\r\n*Reflections on Fulci, a new appraisal of Fulci s Gothic period by actor, writer and director Andy Nyman (Ghost Stories)\r\n*The Dead Are Alive!, a new video essay by Kat Ellinger on Lucio Fulci and the Italian zombie cycle\r\n*Behind the scenes 8mm footage with Roberto Forges Davanzati audio commentary\r\n*Alternative US Gates of Hell opening credits\r\n*Original trailers and radio spots\r\n*image gallery featuring over 150 stills, posters and other ephemera from the FAB Press and Mike Siegel archives\r\n\r\n\r\n[size=15][u][b]Front Cover:[/b][/u][/size]\r\n\r\n\r\n[img]https://i.imgur.com/j8OQzdU.jpg[/img]\r\n\r\n\r\n[size=15][u][b]Release Info:[/b][/u][/size]\r\n\r\n\r\nPaura nella città dei morti viventi | Limited Edition Arrow | 1980 | 93 min | Rated BBFC: 18 | Oct 08, 2018\r\n\r\n\r\n\r\n[size=15][u][b]BD Info:[/b][/u][/size]\r\n\r\n\r\nQUICK SUMMARY:\r\n\r\nDisc Title: CITY OF THE LIVING DEAD\r\nDisc Label: City of the Living Dead 1980 1080p GBR Blu-ray AVC DTS-HD MA 1.0-CultFilms™\r\nDisc Size: 49,415,884,842 bytes\r\nProtection: AACS\r\nPlaylist: 00003.MPLS\r\nSize: 28,391,160,960 bytes\r\nLength: 1:32:45.810\r\nTotal Bitrate: 40.81 Mbps\r\nVideo: MPEG-4 AVC Video / 30811 kbps / 1080p / 23.976 fps / 16:9 / High Profile 4.1\r\nAudio: English / DTS-HD Master Audio / 1.0 / 48 kHz /  1095 kbps / 24-bit (DTS Core: 1.0 / 48 kHz /   768 kbps / 24-bit)\r\nAudio: English / DTS-HD Master Audio / 2.0 / 48 kHz /  1597 kbps / 24-bit (DTS Core: 2.0 / 48 kHz /   768 kbps / 24-bit)\r\nAudio: English / DTS-HD Master Audio / 5.1 / 48 kHz /  3349 kbps / 24-bit (DTS Core: 5.1 / 48 kHz /   768 kbps / 24-bit)\r\nAudio: Italian / DTS-HD Master Audio / 1.0 / 48 kHz /  1067 kbps / 24-bit (DTS Core: 1.0 / 48 kHz /   768 kbps / 24-bit)\r\nAudio: English / Dolby Digital Audio / 2.0 / 48 kHz /   192 kbps\r\nAudio: English / Dolby Digital Audio / 2.0 / 48 kHz /   192 kbps\r\nSubtitle: English / 26.771 kbps\r\nSubtitle: English / 17.172 kbps\r\n\r\n\r\n[size=15][u][b]Screens:[/b][/u][/size]\r\n\r\n\r\n[url=http://www.imagebam.com/image/66d18c1004255744][img]http://thumbs2.imagebam.com/c0/9f/20/66d18c1004255744.jpg[/img][/url] [url=http://www.imagebam.com/image/645fae1004255754][img]http://thumbs2.imagebam.com/af/38/d2/645fae1004255754.jpg[/img][/url] [url=http://www.imagebam.com/image/7151901004255764][img]http://thumbs2.imagebam.com/6a/df/32/7151901004255764.jpg[/img][/url] [url=http://www.imagebam.com/image/3c548f1004255804][img]http://thumbs2.imagebam.com/e9/c9/c5/3c548f1004255804.jpg[/img][/url] [url=http://www.imagebam.com/image/52f6cd1004255814][img]http://thumbs2.imagebam.com/94/2f/17/52f6cd1004255814.jpg[/img][/url] [url=http://www.imagebam.com/image/e339aa1004255824][img]http://thumbs2.imagebam.com/a7/2c/ec/e339aa1004255824.jpg[/img][/url] [url=http://www.imagebam.com/image/8607481004255844][img]http://thumbs2.imagebam.com/13/e5/eb/8607481004255844.jpg[/img][/url] [url=http://www.imagebam.com/image/758c641004255864][img]http://thumbs2.imagebam.com/85/9e/46/758c641004255864.jpg[/img][/url] [url=http://www.imagebam.com/image/de6c091004255884][img]http://thumbs2.imagebam.com/ff/60/30/de6c091004255884.jpg[/img][/url] [url=http://www.imagebam.com/image/e3f8c31004255904][img]http://thumbs2.imagebam.com/3a/60/7b/e3f8c31004255904.jpg[/img][/url] [url=http://www.imagebam.com/image/0a37781004255924][img]http://thumbs2.imagebam.com/4f/83/2d/0a37781004255924.jpg[/img][/url] [url=http://www.imagebam.com/image/cdc3ed1004255934][img]http://thumbs2.imagebam.com/b3/b3/7b/cdc3ed1004255934.jpg[/img][/url] \r\n[/center]",
                "info_hash": "ba05545a1877d671e81f8395837a5cc4bf581f2e",
                "size": 49415884842,
                "num_file": 167,
                "freeleech": "100%",
                "double_upload": 0,
                "internal": 1,
                "uploader": "DinoRider",
                "seeders": 5,
                "leechers": 0,
                "times_completed": 41,
                "tmdb_id": "24920",
                "imdb_id": "0081318",
                "tvdb_id": "0",
                "mal_id": "0",
                "igdb_id": "0",
                "category_id": 1,
                "type_id": 1,
                "resolution_id": 2,
                "region_id": 236,
                "created_at": "2018-10-18T10:09:55.000000Z",
                "download_link": "http://localhost:5000/torrent/download/19540.5b7ea911c9827216bacda80c69d7b9d0",
                "details_link": "http://localhost:5000/torrents/19540"
            }
        }
    ],
    "links": {
        "first": "http://localhost:5000/api/torrents/filter?page=1",
        "last": "http://localhost:5000/api/torrents/filter?page=1",
        "prev": null,
        "next": null,
        "self": "http://localhost:5000/api/torrents"
    },
    "meta": {
        "current_page": 1,
        "from": 1,
        "last_page": 1,
        "links": [
            {
                "url": null,
                "label": "&laquo; Previous",
                "active": false
            },
            {
                "url": "http://localhost:5000/api/torrents/filter?page=1",
                "label": "1",
                "active": true
            },
            {
                "url": null,
                "label": "Next &raquo;",
                "active": false
            }
        ],
        "path": "http://localhost:5000/api/torrents/filter",
        "per_page": 25,
        "to": 8,
        "total": 8
    }
}